<svg id="visual" viewBox="0 0 900 600" width="900" height="600" xmlns="http://www.w3.org/2000/svg" xmlns:xlink="http://www.w3.org/1999/xlink" version="1.1"><g stroke-width="1" stroke-linejoin="bevel"><path d="M435 302L464 377L534 329Z" fill="#658da1" stroke="#658da1"></path><path d="M509 167L391 214L435 302Z" fill="#4a6373" stroke="#4a6373"></path><path d="M435 302L369 439L464 377Z" fill="#4f6b7c" stroke="#4f6b7c"></path><path d="M636 419L634 316L534 329Z" fill="#557385" stroke="#557385"></path><path d="M534 329L509 167L435 302Z" fill="#608497" stroke="#608497"></path><path d="M316 274L369 439L435 302Z" fill="#394b58" stroke="#394b58"></path><path d="M464 377L636 419L534 329Z" fill="#6b96aa" stroke="#6b96aa"></path><path d="M573 192L509 167L534 329Z" fill="#34434f" stroke="#34434f"></path><path d="M634 316L573 192L534 329Z" fill="#445b6a" stroke="#445b6a"></path><path d="M369 439L472 492L464 377Z" fill="#394b58" stroke="#394b58"></path><path d="M391 214L316 274L435 302Z" fill="#445b6a" stroke="#445b6a"></path><path d="M472 492L636 419L464 377Z" fill="#4f6b7c" stroke="#4f6b7c"></path><path d="M316 274L336 436L369 439Z" fill="#5a7c8e" stroke="#5a7c8e"></path><path d="M369 439L399 533L472 492Z" fill="#394b58" stroke="#394b58"></path><path d="M634 316L686 227L573 192Z" fill="#4f6b7c" stroke="#4f6b7c"></path><path d="M733 414L688 260L634 316Z" fill="#557385" stroke="#557385"></path><path d="M509 167L438 114L391 214Z" fill="#4a6373" stroke="#4a6373"></path><path d="M391 214L292 211L316 274Z" fill="#3f5361" stroke="#3f5361"></path><path d="M467 84L438 114L509 167Z" fill="#557385" stroke="#557385"></path><path d="M336 436L399 533L369 439Z" fill="#6b96aa" stroke="#6b96aa"></path><path d="M472 492L590 523L636 419Z" fill="#5a7c8e" stroke="#5a7c8e"></path><path d="M266 108L292 211L391 214Z" fill="#5a7c8e" stroke="#5a7c8e"></path><path d="M213 372L268 489L336 436Z" fill="#4f6b7c" stroke="#4f6b7c"></path><path d="M566 600L590 523L472 492Z" fill="#445b6a" stroke="#445b6a"></path><path d="M688 260L686 227L634 316Z" fill="#34434f" stroke="#34434f"></path><path d="M639 89L467 84L509 167Z" fill="#557385" stroke="#557385"></path><path d="M639 89L509 167L573 192Z" fill="#658da1" stroke="#658da1"></path><path d="M438 114L266 108L391 214Z" fill="#445b6a" stroke="#445b6a"></path><path d="M728 528L733 414L636 419Z" fill="#445b6a" stroke="#445b6a"></path><path d="M636 419L733 414L634 316Z" fill="#4a6373" stroke="#4a6373"></path><path d="M688 260L794 187L686 227Z" fill="#445b6a" stroke="#445b6a"></path><path d="M213 372L336 436L316 274Z" fill="#6b96aa" stroke="#6b96aa"></path><path d="M336 436L268 489L399 533Z" fill="#6b96aa" stroke="#6b96aa"></path><path d="M189 307L213 372L316 274Z" fill="#394b58" stroke="#394b58"></path><path d="M407 600L468 600L399 533Z" fill="#4a6373" stroke="#4a6373"></path><path d="M399 533L468 600L472 492Z" fill="#3f5361" stroke="#3f5361"></path><path d="M306 600L407 600L399 533Z" fill="#4f6b7c" stroke="#4f6b7c"></path><path d="M468 600L566 600L472 492Z" fill="#658da1" stroke="#658da1"></path><path d="M590 523L728 528L636 419Z" fill="#658da1" stroke="#658da1"></path><path d="M691 121L639 89L573 192Z" fill="#608497" stroke="#608497"></path><path d="M292 211L189 307L316 274Z" fill="#34434f" stroke="#34434f"></path><path d="M794 187L691 121L686 227Z" fill="#394b58" stroke="#394b58"></path><path d="M686 227L691 121L573 192Z" fill="#658da1" stroke="#658da1"></path><path d="M782 506L777 387L733 414Z" fill="#3f5361" stroke="#3f5361"></path><path d="M733 414L777 387L688 260Z" fill="#3f5361" stroke="#3f5361"></path><path d="M213 372L218 477L268 489Z" fill="#557385" stroke="#557385"></path><path d="M268 489L306 600L399 533Z" fill="#608497" stroke="#608497"></path><path d="M123 376L218 477L213 372Z" fill="#4a6373" stroke="#4a6373"></path><path d="M313 0L266 108L438 114Z" fill="#557385" stroke="#557385"></path><path d="M292 211L130 215L189 307Z" fill="#394b58" stroke="#394b58"></path><path d="M727 600L728 528L590 523Z" fill="#4f6b7c" stroke="#4f6b7c"></path><path d="M211 600L306 600L268 489Z" fill="#4a6373" stroke="#4a6373"></path><path d="M639 89L505 0L467 84Z" fill="#658da1" stroke="#658da1"></path><path d="M467 84L433 0L438 114Z" fill="#3f5361" stroke="#3f5361"></path><path d="M624 0L505 0L639 89Z" fill="#658da1" stroke="#658da1"></path><path d="M505 0L433 0L467 84Z" fill="#557385" stroke="#557385"></path><path d="M900 303L818 320L900 428Z" fill="#5a7c8e" stroke="#5a7c8e"></path><path d="M777 387L818 320L688 260Z" fill="#5a7c8e" stroke="#5a7c8e"></path><path d="M818 320L794 187L688 260Z" fill="#3f5361" stroke="#3f5361"></path><path d="M728 0L624 0L639 89Z" fill="#4a6373" stroke="#4a6373"></path><path d="M189 307L136 329L213 372Z" fill="#658da1" stroke="#658da1"></path><path d="M130 215L136 329L189 307Z" fill="#608497" stroke="#608497"></path><path d="M767 600L782 506L728 528Z" fill="#34434f" stroke="#34434f"></path><path d="M728 528L782 506L733 414Z" fill="#658da1" stroke="#658da1"></path><path d="M728 0L639 89L691 121Z" fill="#4a6373" stroke="#4a6373"></path><path d="M794 187L778 127L691 121Z" fill="#445b6a" stroke="#445b6a"></path><path d="M179 114L161 161L266 108Z" fill="#4a6373" stroke="#4a6373"></path><path d="M266 108L161 161L292 211Z" fill="#5a7c8e" stroke="#5a7c8e"></path><path d="M0 311L123 376L136 329Z" fill="#658da1" stroke="#658da1"></path><path d="M136 329L123 376L213 372Z" fill="#608497" stroke="#608497"></path><path d="M218 477L211 600L268 489Z" fill="#445b6a" stroke="#445b6a"></path><path d="M566 600L727 600L590 523Z" fill="#6b96aa" stroke="#6b96aa"></path><path d="M433 0L313 0L438 114Z" fill="#608497" stroke="#608497"></path><path d="M161 161L130 215L292 211Z" fill="#34434f" stroke="#34434f"></path><path d="M182 0L179 114L266 108Z" fill="#4a6373" stroke="#4a6373"></path><path d="M161 161L88 71L130 215Z" fill="#658da1" stroke="#658da1"></path><path d="M67 538L211 600L218 477Z" fill="#4f6b7c" stroke="#4f6b7c"></path><path d="M727 600L767 600L728 528Z" fill="#445b6a" stroke="#445b6a"></path><path d="M900 428L818 320L777 387Z" fill="#557385" stroke="#557385"></path><path d="M778 127L728 0L691 121Z" fill="#34434f" stroke="#34434f"></path><path d="M900 428L777 387L782 506Z" fill="#394b58" stroke="#394b58"></path><path d="M818 320L900 224L794 187Z" fill="#557385" stroke="#557385"></path><path d="M794 187L900 86L778 127Z" fill="#5a7c8e" stroke="#5a7c8e"></path><path d="M778 127L786 0L728 0Z" fill="#34434f" stroke="#34434f"></path><path d="M900 501L900 428L782 506Z" fill="#34434f" stroke="#34434f"></path><path d="M900 303L900 224L818 320Z" fill="#6b96aa" stroke="#6b96aa"></path><path d="M313 0L182 0L266 108Z" fill="#557385" stroke="#557385"></path><path d="M179 114L88 71L161 161Z" fill="#445b6a" stroke="#445b6a"></path><path d="M900 86L786 0L778 127Z" fill="#445b6a" stroke="#445b6a"></path><path d="M900 600L900 501L782 506Z" fill="#557385" stroke="#557385"></path><path d="M0 471L67 538L123 376Z" fill="#445b6a" stroke="#445b6a"></path><path d="M123 376L67 538L218 477Z" fill="#608497" stroke="#608497"></path><path d="M182 0L88 71L179 114Z" fill="#34434f" stroke="#34434f"></path><path d="M130 215L0 311L136 329Z" fill="#557385" stroke="#557385"></path><path d="M67 538L89 600L211 600Z" fill="#608497" stroke="#608497"></path><path d="M0 236L0 311L130 215Z" fill="#4a6373" stroke="#4a6373"></path><path d="M900 224L900 86L794 187Z" fill="#34434f" stroke="#34434f"></path><path d="M0 311L0 378L123 376Z" fill="#445b6a" stroke="#445b6a"></path><path d="M67 538L0 600L89 600Z" fill="#658da1" stroke="#658da1"></path><path d="M0 116L0 236L130 215Z" fill="#4f6b7c" stroke="#4f6b7c"></path><path d="M767 600L900 600L782 506Z" fill="#445b6a" stroke="#445b6a"></path><path d="M0 378L0 471L123 376Z" fill="#658da1" stroke="#658da1"></path><path d="M182 0L83 0L88 71Z" fill="#658da1" stroke="#658da1"></path><path d="M88 71L0 116L130 215Z" fill="#3f5361" stroke="#3f5361"></path><path d="M0 0L0 116L88 71Z" fill="#5a7c8e" stroke="#5a7c8e"></path><path d="M900 86L900 0L786 0Z" fill="#658da1" stroke="#658da1"></path><path d="M0 471L0 600L67 538Z" fill="#394b58" stroke="#394b58"></path><path d="M83 0L0 0L88 71Z" fill="#5a7c8e" stroke="#5a7c8e"></path></g></svg>